<svg xmlns="http://www.w3.org/2000/svg" width="34.009" height="33.002" viewBox="0 0 34.009 33.002"><path d="M57.36,77.047l-7.194-6.941-2.508,4.64a1.07,1.07,0,0,1-1.028.516.947.947,0,0,1-.863-.753l-4.728-16.7a1.041,1.041,0,0,1,.288-.952,1.081,1.081,0,0,1,.986-.238L59.5,61.26a1.032,1.032,0,0,1,.74.873,1.013,1.013,0,0,1-.535.992l-4.851,2.419,7.195,6.981a3.152,3.152,0,0,1,0,4.522,3.36,3.36,0,0,1-4.687,0Zm-7.44-9.6a1.013,1.013,0,0,1,.74.277L58.8,75.62a1.272,1.272,0,0,0,1.768,0,1.169,1.169,0,0,0,0-1.706L52.385,66.02a1,1,0,0,1-.287-.873.96.96,0,0,1,.534-.714l3.783-1.9L43.506,59l3.535,12.574,1.974-3.609a.923.923,0,0,1,.74-.516Zm-15.5-1.705a.935.935,0,0,1,0-1.389l2.179-2.1a1.018,1.018,0,0,1,1.439,0,.937.937,0,0,1,0,1.389l-2.179,2.1a.921.921,0,0,1-.7.277A1.01,1.01,0,0,1,34.421,65.743Zm-4.4-6.783a.992.992,0,1,1,0-1.984H36.8a.992.992,0,1,1,0,1.984Zm16.855-5.2a.936.936,0,0,1,0-1.388l2.179-2.1a1.018,1.018,0,0,1,1.439,0,.935.935,0,0,1,0,1.389l-2.179,2.1a1.074,1.074,0,0,1-.74.278A1.092,1.092,0,0,1,46.877,53.763ZM36.64,53.684l-2.138-2.1a.935.935,0,0,1,0-1.389,1.018,1.018,0,0,1,1.439,0l2.179,2.1a.934.934,0,0,1,0,1.388,1.124,1.124,0,0,1-1.48,0Zm4.892-1.15V45.989a1.028,1.028,0,0,1,2.056,0v6.545a1.028,1.028,0,0,1-2.056,0Z" transform="translate(-28.993 -44.997)" fill="#fff"/></svg>