<svg xmlns="http://www.w3.org/2000/svg" width="49" height="49" viewBox="0 0 49 49"><g transform="translate(-812 -4627)"><path d="M24.5,0A24.5,24.5,0,1,1,0,24.5,24.5,24.5,0,0,1,24.5,0Z" transform="translate(812 4627)" fill="#fff"/><circle cx="24.5" cy="24.5" r="24.5" transform="translate(812 4627)" fill="#fff"/><path d="M832.255,4663.49a6.305,6.305,0,0,1-6.223-6.371v-10.341a6.3,6.3,0,0,1,6.223-6.369H842.36a6.3,6.3,0,0,1,6.223,6.369v10.341a6.305,6.305,0,0,1-6.223,6.371Zm-4.222-16.712v10.341a4.277,4.277,0,0,0,4.222,4.322H842.36a4.278,4.278,0,0,0,4.223-4.322v-10.341a4.278,4.278,0,0,0-4.223-4.322H832.255A4.277,4.277,0,0,0,828.034,4646.778Zm3.463,5.171a5.813,5.813,0,1,1,5.811,5.948A5.887,5.887,0,0,1,831.5,4651.949Zm2,0a3.811,3.811,0,1,0,3.81-3.9A3.859,3.859,0,0,0,833.5,4651.949Zm8.828-5.12a1.526,1.526,0,0,1,0-2.125,1.444,1.444,0,0,1,2.074,0,1.529,1.529,0,0,1,0,2.125,1.444,1.444,0,0,1-2.074,0Z" fill="#3b717e"/></g></svg>