<svg xmlns="http://www.w3.org/2000/svg" width="49" height="49" viewBox="0 0 49 49"><g transform="translate(-667 -4627)"><path d="M24.5,0A24.5,24.5,0,1,1,0,24.5,24.5,24.5,0,0,1,24.5,0Z" transform="translate(667 4627)" fill="#fff"/><circle cx="24.5" cy="24.5" r="24.5" transform="translate(667 4627)" fill="#fff"/><path d="M698.553,4660.637v-8.4c0-1.953-.656-3.286-2.3-3.286a2.506,2.506,0,0,0-2.329,1.766,3.522,3.522,0,0,0-.15,1.179v8.741h-4.537v-10.323c0-1.89-.06-3.47-.119-4.834h3.941l.209,2.108h.089a5.2,5.2,0,0,1,4.508-2.449c2.985,0,5.225,2.077,5.225,6.541v8.958Zm-16.567,0v-15.158h4.537v15.158Zm-.119-19.374a2.4,2.4,0,1,1,2.357,2.355A2.292,2.292,0,0,1,681.866,4641.263Z" fill="#3b717e"/></g></svg>