<svg xmlns="http://www.w3.org/2000/svg" width="29.009" height="24.008" viewBox="0 0 29.009 24.008"><path d="M35.27,215.008A1.26,1.26,0,0,1,34,213.765v-3.1a1.256,1.256,0,0,1,1.274-1.24h3.177a1.251,1.251,0,0,1,1.269,1.24v3.1a1.255,1.255,0,0,1-1.269,1.243Zm8.682-1.447a1.343,1.343,0,1,1,0-2.686H61.628a1.343,1.343,0,1,1,0,2.686Zm-8.682-7.766A1.259,1.259,0,0,1,34,204.555v-3.1a1.258,1.258,0,0,1,1.274-1.244h3.177a1.254,1.254,0,0,1,1.269,1.244v3.1a1.255,1.255,0,0,1-1.269,1.24Zm8.682-1.447a1.344,1.344,0,1,1,0-2.686H61.628a1.344,1.344,0,1,1,0,2.686Zm-8.682-7.766A1.258,1.258,0,0,1,34,195.341v-3.1A1.255,1.255,0,0,1,35.27,191h3.177a1.251,1.251,0,0,1,1.269,1.24v3.1a1.253,1.253,0,0,1-1.269,1.24Zm8.682-1.448a1.343,1.343,0,1,1,0-2.686H61.628a1.343,1.343,0,1,1,0,2.686Z" transform="translate(-33.996 -191.001)" fill="#fff"/></svg>