<svg xmlns="http://www.w3.org/2000/svg" width="49" height="49" viewBox="0 0 49 49"><g transform="translate(-740 -4627)"><circle cx="24.5" cy="24.5" r="24.5" transform="translate(740 4627)" fill="#fff"/><path d="M778.622,4645.341a3.363,3.363,0,0,0-2.346-2.4c-2.069-.567-10.365-.567-10.365-.567s-8.3,0-10.366.567a3.363,3.363,0,0,0-2.346,2.4,38.809,38.809,0,0,0,0,13.072,3.363,3.363,0,0,0,2.346,2.4c2.069.567,10.366.567,10.366.567s8.3,0,10.365-.567a3.363,3.363,0,0,0,2.346-2.4,38.8,38.8,0,0,0,0-13.072ZM763.2,4655.889v-8.023l6.934,4.012Z" fill="#3b717e"/></g></svg>