<svg xmlns="http://www.w3.org/2000/svg" width="81" height="57" viewBox="0 0 81 57"><g transform="translate(-457 -2540)"><path d="M536.307,2548.9a10.171,10.171,0,0,0-7.161-7.2c-6.317-1.7-31.646-1.7-31.646-1.7s-25.329,0-31.646,1.7a10.171,10.171,0,0,0-7.161,7.2C457,2555.25,457,2568.5,457,2568.5s0,13.249,1.693,19.6a10.173,10.173,0,0,0,7.161,7.2c6.317,1.7,31.646,1.7,31.646,1.7s25.329,0,31.646-1.7a10.172,10.172,0,0,0,7.161-7.2c1.693-6.35,1.693-19.6,1.693-19.6S538,2555.25,536.307,2548.9Zm-47.091,31.629v-24.059l21.171,12.03Z" fill="#d60000"/><path d="M489,2556l22,12.522L489,2581Z" fill="#e4edf3"/></g></svg>