<?xml version="1.0" encoding="utf-8"?>
<!-- Generator: Adobe Illustrator 16.0.0, SVG Export Plug-In . SVG Version: 6.00 Build 0)  -->
<!DOCTYPE svg PUBLIC "-//W3C//DTD SVG 1.1//EN" "http://www.w3.org/Graphics/SVG/1.1/DTD/svg11.dtd">
<svg version="1.1" id="Layer_1" xmlns="http://www.w3.org/2000/svg" xmlns:xlink="http://www.w3.org/1999/xlink" x="0px" y="0px"
	 width="511.929px" height="384.021px" viewBox="-0.006 64 511.929 384.021" enable-background="new -0.006 64 511.929 384.021"
	 xml:space="preserve">
<g>
	<path fill="#FFFFFF" d="M508.6,148.8c0-45-33.1-81.2-74-81.2C379.199,65,322.699,64,265,64c-3,0-6,0-9,0s-6,0-9,0
		C189.4,64,132.8,65,77.4,67.6C36.6,67.6,3.5,104,3.5,149C1,184.6-0.1,220.2,0,255.8C-0.1,291.4,1,327,3.4,362.7
		c0,45,33.101,81.5,73.9,81.5c58.2,2.7,117.9,3.899,178.6,3.8c60.8,0.2,120.3-1,178.601-3.8c40.899,0,74-36.5,74-81.5
		c2.399-35.7,3.5-71.3,3.399-107C512.1,220.1,511,184.5,508.6,148.8z M207,353.9V157.4l145,98.2L207,353.9z"/>
</g>
</svg>
