<?xml version="1.0" encoding="utf-8"?>
<!-- Generator: Adobe Illustrator 23.0.1, SVG Export Plug-In . SVG Version: 6.00 Build 0)  -->
<svg version="1.1" id="Calque_1" xmlns="http://www.w3.org/2000/svg" xmlns:xlink="http://www.w3.org/1999/xlink" x="0px" y="0px"
	 viewBox="0 0 595.7 173.3" style="enable-background:new 0 0 595.7 173.3;" xml:space="preserve">
<style type="text/css">
	.st0{fill:#3D3D3B;}
	.st1{fill:none;stroke:#3D3D3B;stroke-width:6.3262;stroke-miterlimit:10;}
	.st2{display:none;fill:#585857;}
	.st3{display:none;}
	.st4{display:inline;}
	.st5{fill:#407285;}
	.st6{fill:none;}
	.st7{fill:#FFDB06;}
	.st8{fill:#C7C6C7;}
	.st9{display:inline;fill:#FFFFFF;}
	.st10{display:inline;fill:#3D3D3B;}
	.st11{display:inline;fill:none;}
	.st12{fill:#595958;}
	.st13{fill:#437386;}
	.st14{fill:#223336;}
	.st15{fill:#FFDB0B;}
	.st16{fill:#5A5023;}
	.st17{fill:#4D6735;}
	.st18{fill:#25321F;}
	.st19{fill:#C8C6C7;}
	.st20{fill:#39616D;}
	.st21{fill:#C7AC29;}
	.st22{fill:#425933;}
	.st23{fill:#232C1C;}
	.st24{fill:#FFFFFF;}
	.st25{fill:#3E3D3C;}
	.st26{fill:#417285;}
</style>
<g>
	<g>
		<path class="st0" d="M311,94h2.1v11.7H311V94z"/>
		<path class="st0" d="M316,94h1.9l6.3,8.1V94h2v11.7h-1.7l-6.5-8.3v8.3h-2L316,94L316,94z"/>
		<path class="st0" d="M331.9,96h-3.7V94h9.5V96h-3.7v9.8h-2.1V96z"/>
		<path class="st0" d="M339.6,94h8.7v1.8h-6.6v3h5.9v1.8h-5.9v3.2h6.7v1.8h-8.8V94z"/>
		<path class="st0" d="M350.6,94h5.2c1.5,0,2.6,0.4,3.4,1.2c0.6,0.6,1,1.5,1,2.5v0c0,1.9-1.2,3.1-2.8,3.6l3.2,4.4h-2.4l-2.9-4.1
			h-2.6v4.1h-2.1L350.6,94L350.6,94z M355.7,99.9c1.5,0,2.4-0.8,2.4-2v0c0-1.3-0.9-1.9-2.4-1.9h-3v3.9L355.7,99.9L355.7,99.9z"/>
		<path class="st0" d="M362.5,94h1.9l6.3,8.1V94h2v11.7H371l-6.5-8.3v8.3h-2L362.5,94L362.5,94z"/>
		<path class="st0" d="M379.6,94h1.9l5.2,11.8h-2.2l-1.2-2.8h-5.5l-1.2,2.8h-2.1L379.6,94z M382.6,101.1l-2-4.7l-2,4.7H382.6z"/>
		<path class="st0" d="M391.3,96h-3.7V94h9.5V96h-3.7v9.8h-2.1V96z"/>
		<path class="st0" d="M399.2,94h2.1v11.7h-2.1V94z"/>
		<path class="st0" d="M403.6,99.9L403.6,99.9c0-3.3,2.5-6.1,6.1-6.1s6.1,2.7,6.1,6v0c0,3.3-2.5,6.1-6.1,6.1
			C406.1,106,403.6,103.2,403.6,99.9z M413.7,99.9L413.7,99.9c0-2.3-1.7-4.2-4-4.2c-2.3,0-4,1.9-4,4.1v0c0,2.3,1.7,4.2,4,4.2
			C412.1,104.1,413.7,102.2,413.7,99.9z"/>
		<path class="st0" d="M418.2,94h1.9l6.3,8.1V94h2v11.7h-1.7l-6.5-8.3v8.3h-2L418.2,94L418.2,94z"/>
		<path class="st0" d="M435.3,94h1.9l5.2,11.8h-2.2l-1.2-2.8h-5.5l-1.2,2.8h-2.1L435.3,94z M438.3,101.1l-2-4.7l-2,4.7H438.3z"/>
		<path class="st0" d="M444.1,94h2.1v9.9h6.2v1.9h-8.2V94z"/>
		<path class="st0" d="M459.1,94h8.7v1.8h-6.6v3h5.9v1.8h-5.9v3.2h6.7v1.8h-8.8V94z"/>
		<path class="st0" d="M480,94l-4.1,5.7l4.3,6h-2.4l-3.1-4.5l-3.1,4.5h-2.4l4.2-6l-4.1-5.8h2.4l2.9,4.3l2.9-4.3L480,94L480,94z"/>
		<path class="st0" d="M482,94h2.1v4.9h5.6V94h2.1v11.7h-2.1v-4.9h-5.6v4.9H482V94z"/>
		<path class="st0" d="M494.6,94h2.1v11.7h-2.1V94z"/>
		<path class="st0" d="M499.6,94h5.3c1.3,0,2.4,0.4,3.1,1c0.5,0.5,0.8,1.2,0.8,1.9v0c0,1.4-0.8,2.2-1.7,2.6c1.4,0.5,2.3,1.3,2.3,2.8
			v0c0,2.1-1.7,3.2-4.3,3.2h-5.4L499.6,94L499.6,94z M506.7,97.4c0-0.9-0.7-1.5-2.1-1.5h-3V99h2.8C505.8,99,506.7,98.5,506.7,97.4
			L506.7,97.4L506.7,97.4z M504.9,100.7h-3.3v3.2h3.4c1.4,0,2.3-0.6,2.3-1.6v0C507.3,101.3,506.5,100.7,504.9,100.7z"/>
		<path class="st0" d="M511.6,94h2.1v11.7h-2.1L511.6,94L511.6,94z"/>
		<path class="st0" d="M519.4,96h-3.7V94h9.5V96h-3.7v9.8h-2.1L519.4,96L519.4,96z"/>
		<path class="st0" d="M527.3,94h2.1v11.7h-2.1V94z"/>
		<path class="st0" d="M531.7,99.9L531.7,99.9c0-3.3,2.5-6.1,6.1-6.1s6.1,2.7,6.1,6v0c0,3.3-2.5,6.1-6.1,6.1
			C534.2,106,531.7,103.2,531.7,99.9z M541.8,99.9L541.8,99.9c0-2.3-1.7-4.2-4-4.2c-2.3,0-4,1.9-4,4.1v0c0,2.3,1.7,4.2,4,4.2
			C540.2,104.1,541.8,102.2,541.8,99.9z"/>
		<path class="st0" d="M546.2,94h1.9l6.3,8.1V94h2v11.7h-1.7l-6.5-8.3v8.3h-2L546.2,94L546.2,94z"/>
		<path class="st0" d="M310.9,118h8.7v1.9H313v3.2h5.9v1.9H313v4.8h-2.1V118z"/>
		<path class="st0" d="M321.1,123.9L321.1,123.9c0-3.3,2.5-6.1,6.1-6.1s6.1,2.7,6.1,6v0c0,3.3-2.5,6.1-6.1,6.1
			C323.7,130,321.1,127.2,321.1,123.9z M331.2,123.9L331.2,123.9c0-2.3-1.7-4.2-4-4.2c-2.3,0-4,1.9-4,4.1v0c0,2.3,1.7,4.2,4,4.2
			C329.6,128.1,331.2,126.2,331.2,123.9z"/>
		<path class="st0" d="M335.7,118h5.2c1.5,0,2.6,0.4,3.4,1.2c0.6,0.6,1,1.5,1,2.5v0c0,1.9-1.2,3.1-2.8,3.6l3.2,4.4h-2.4l-2.9-4.1
			h-2.6v4.1h-2.1L335.7,118L335.7,118z M340.7,123.9c1.5,0,2.4-0.8,2.4-2v0c0-1.3-0.9-1.9-2.4-1.9h-3v3.9L340.7,123.9L340.7,123.9z"
			/>
		<path class="st0" d="M351.8,123.9L351.8,123.9c0-3.4,2.5-6.1,6-6.1c2.2,0,3.5,0.8,4.6,1.8l-1.3,1.5c-0.9-0.9-1.9-1.5-3.3-1.5
			c-2.2,0-3.9,1.8-3.9,4.1v0c0,2.3,1.6,4.2,3.9,4.2c1.4,0,2.4-0.6,3.4-1.5l1.3,1.3c-1.2,1.3-2.6,2.1-4.8,2.1
			C354.4,130,351.8,127.3,351.8,123.9z"/>
		<path class="st0" d="M363.9,123.9L363.9,123.9c0-3.3,2.5-6.1,6.1-6.1s6.1,2.7,6.1,6v0c0,3.3-2.5,6.1-6.1,6.1
			C366.4,130,363.9,127.2,363.9,123.9z M374,123.9L374,123.9c0-2.3-1.7-4.2-4-4.2c-2.3,0-4,1.9-4,4.1v0c0,2.3,1.7,4.2,4,4.2
			C372.4,128.1,374,126.2,374,123.9z"/>
		<path class="st0" d="M378.5,118h1.9l6.3,8.1V118h2v11.7H387l-6.5-8.3v8.3h-2L378.5,118L378.5,118z"/>
		<path class="st0" d="M390.7,128.1l1.2-1.5c1.1,1,2.3,1.5,3.7,1.5c1.3,0,2.1-0.6,2.1-1.5v0c0-0.8-0.5-1.3-2.6-1.8
			c-2.5-0.6-3.9-1.3-3.9-3.5v0c0-2,1.7-3.4,4-3.4c1.7,0,3.1,0.5,4.3,1.5l-1.1,1.6c-1.1-0.8-2.1-1.2-3.2-1.2c-1.2,0-1.9,0.6-1.9,1.4
			v0c0,0.9,0.5,1.3,2.8,1.8c2.5,0.6,3.8,1.5,3.8,3.4v0c0,2.2-1.7,3.5-4.2,3.5C393.8,129.9,392.1,129.3,390.7,128.1z"/>
		<path class="st0" d="M404.8,120h-3.7V118h9.5v1.9h-3.7v9.8h-2.1V120z"/>
		<path class="st0" d="M412.6,118h5.2c1.5,0,2.6,0.4,3.4,1.2c0.6,0.6,1,1.5,1,2.5v0c0,1.9-1.2,3.1-2.8,3.6l3.2,4.4h-2.4l-2.9-4.1
			h-2.6v4.1h-2.1L412.6,118L412.6,118z M417.6,123.9c1.5,0,2.4-0.8,2.4-2v0c0-1.3-0.9-1.9-2.4-1.9h-3v3.9L417.6,123.9L417.6,123.9z"
			/>
		<path class="st0" d="M424.2,124.8V118h2.1v6.7c0,2.2,1.1,3.3,3,3.3c1.8,0,2.9-1.1,2.9-3.2V118h2.1v6.7c0,3.5-2,5.3-5,5.3
			C426.2,130,424.2,128.2,424.2,124.8z"/>
		<path class="st0" d="M436.4,123.9L436.4,123.9c0-3.4,2.5-6.1,6-6.1c2.2,0,3.5,0.8,4.6,1.8l-1.3,1.5c-0.9-0.9-1.9-1.5-3.3-1.5
			c-2.2,0-3.9,1.8-3.9,4.1v0c0,2.3,1.6,4.2,3.9,4.2c1.4,0,2.4-0.6,3.4-1.5l1.3,1.3c-1.2,1.3-2.6,2.1-4.8,2.1
			C438.9,130,436.4,127.3,436.4,123.9z"/>
		<path class="st0" d="M451.9,120h-3.7V118h9.5v1.9H454v9.8h-2.1V120z"/>
		<path class="st0" d="M459.7,118h2.1v11.7h-2.1V118z"/>
		<path class="st0" d="M464.2,123.9L464.2,123.9c0-3.3,2.5-6.1,6.1-6.1s6.1,2.7,6.1,6v0c0,3.3-2.5,6.1-6.1,6.1
			C466.7,130,464.2,127.2,464.2,123.9z M474.3,123.9L474.3,123.9c0-2.3-1.7-4.2-4-4.2c-2.3,0-4,1.9-4,4.1v0c0,2.3,1.7,4.2,4,4.2
			C472.7,128.1,474.3,126.2,474.3,123.9z"/>
		<path class="st0" d="M478.7,118h1.9l6.3,8.1V118h2v11.7h-1.7l-6.5-8.3v8.3h-2V118z"/>
		<path class="st0" d="M315.1,142h1.9l5.2,11.8H320l-1.2-2.8h-5.5l-1.2,2.8h-2.1L315.1,142z M318,149.1l-2-4.7l-2,4.7H318z"/>
		<path class="st0" d="M323.9,142h1.9l6.3,8.1V142h2v11.7h-1.7l-6.5-8.3v8.3h-2L323.9,142L323.9,142z"/>
		<path class="st0" d="M336.9,142h4.4c3.7,0,6.2,2.5,6.2,5.8v0c0,3.3-2.5,5.9-6.2,5.9h-4.4V142z M339,143.9v8h2.3
			c2.5,0,4.1-1.7,4.1-4v0c0-2.3-1.6-4-4.1-4L339,143.9L339,143.9z"/>
		<path class="st0" d="M354.7,142h2.1v11.7h-2.1V142z"/>
		<path class="st0" d="M359.6,142h1.9l6.3,8.1V142h2v11.7h-1.7l-6.5-8.3v8.3h-2L359.6,142L359.6,142z"/>
		<path class="st0" d="M372.6,142h8.7v1.9h-6.7v3.2h5.9v1.9h-5.9v4.8h-2.1V142z"/>
		<path class="st0" d="M383.4,142h5.2c1.5,0,2.6,0.4,3.4,1.2c0.6,0.6,1,1.5,1,2.5v0c0,1.9-1.2,3.1-2.8,3.6l3.2,4.4h-2.4l-2.9-4.1
			h-2.6v4.1h-2.1L383.4,142L383.4,142z M388.5,147.9c1.5,0,2.4-0.8,2.4-2v0c0-1.3-0.9-1.9-2.4-1.9h-3v3.9L388.5,147.9L388.5,147.9z"
			/>
		<path class="st0" d="M399.4,142h1.9l5.2,11.8h-2.2l-1.2-2.8h-5.5l-1.2,2.8h-2.1L399.4,142z M402.4,149.1l-2-4.7l-2,4.7H402.4z"/>
		<path class="st0" d="M407.5,152.1l1.2-1.5c1.1,1,2.3,1.5,3.7,1.5c1.3,0,2.1-0.6,2.1-1.5v0c0-0.8-0.5-1.3-2.6-1.8
			c-2.5-0.6-3.9-1.3-3.9-3.5v0c0-2,1.7-3.4,4-3.4c1.7,0,3.1,0.5,4.3,1.5l-1.1,1.6c-1.1-0.8-2.1-1.2-3.2-1.2c-1.2,0-1.9,0.6-1.9,1.4
			v0c0,0.9,0.5,1.3,2.8,1.8c2.5,0.6,3.8,1.5,3.8,3.4v0c0,2.2-1.7,3.5-4.2,3.5C410.6,153.9,408.9,153.3,407.5,152.1z"/>
		<path class="st0" d="M421.6,144h-3.7V142h9.5v1.9h-3.7v9.8h-2.1V144z"/>
		<path class="st0" d="M429.4,142h5.2c1.5,0,2.6,0.4,3.4,1.2c0.6,0.6,1,1.5,1,2.5v0c0,1.9-1.2,3.1-2.8,3.6l3.2,4.4h-2.4l-2.9-4.1
			h-2.6v4.1h-2.1L429.4,142L429.4,142z M434.4,147.9c1.5,0,2.4-0.8,2.4-2v0c0-1.3-0.9-1.9-2.4-1.9h-3v3.9L434.4,147.9L434.4,147.9z"
			/>
		<path class="st0" d="M441,148.8V142h2.1v6.7c0,2.2,1.1,3.3,3,3.3c1.8,0,2.9-1.1,2.9-3.2V142h2.1v6.7c0,3.5-2,5.3-5,5.3
			C443,154,441,152.2,441,148.8z"/>
		<path class="st0" d="M453.2,147.9L453.2,147.9c0-3.4,2.5-6.1,6-6.1c2.2,0,3.5,0.8,4.6,1.8l-1.3,1.5c-0.9-0.9-1.9-1.5-3.3-1.5
			c-2.2,0-3.9,1.8-3.9,4.1v0c0,2.3,1.6,4.2,3.9,4.2c1.4,0,2.4-0.6,3.4-1.5l1.3,1.3c-1.2,1.3-2.6,2.1-4.8,2.1
			C455.7,154,453.2,151.3,453.2,147.9z"/>
		<path class="st0" d="M468.7,144H465V142h9.5v1.9h-3.7v9.8h-2.1V144z"/>
		<path class="st0" d="M476.2,148.8V142h2.1v6.7c0,2.2,1.1,3.3,3,3.3c1.8,0,2.9-1.1,2.9-3.2V142h2.1v6.7c0,3.5-2,5.3-5,5.3
			C478.2,154,476.2,152.2,476.2,148.8z"/>
		<path class="st0" d="M488.9,142h5.2c1.5,0,2.6,0.4,3.4,1.2c0.6,0.6,1,1.5,1,2.5v0c0,1.9-1.2,3.1-2.8,3.6l3.2,4.4h-2.4l-2.9-4.1
			h-2.6v4.1h-2.1L488.9,142L488.9,142z M493.9,147.9c1.5,0,2.4-0.8,2.4-2v0c0-1.3-0.9-1.9-2.4-1.9h-3v3.9L493.9,147.9L493.9,147.9z"
			/>
		<path class="st0" d="M500.7,142h8.7v1.8h-6.6v3h5.9v1.8h-5.9v3.1h6.7v1.8h-8.8V142z"/>
	</g>
	<g>
		<g>
			<g>
				<g>
					<path class="st0" d="M311.5,0.2h10.1c5.9,0,9.7,3,9.7,8.2v0.1c0,5.6-4.3,8.5-10,8.5H318v6.7h-6.5L311.5,0.2L311.5,0.2z
						 M321.1,11.8c2.3,0,3.7-1.2,3.7-3.1V8.7c0-2-1.4-3-3.8-3H318v6.2H321.1z"/>
					<path class="st0" d="M339.8,0h6.3l10,23.6h-7l-1.7-4.2h-9.1l-1.7,4.2h-6.8L339.8,0z M345.5,14.3l-2.6-6.6l-2.6,6.6H345.5z"/>
					<path class="st0" d="M358.3,0.2h11.1c3.6,0,6.1,0.9,7.6,2.5c1.4,1.4,2.1,3.1,2.1,5.5v0.1c0,3.6-1.9,6-4.8,7.2l5.6,8.2h-7.5
						l-4.7-7.1h-2.9v7.1h-6.5L358.3,0.2L358.3,0.2z M369.2,11.4c2.2,0,3.5-1.1,3.5-2.8V8.6c0-1.9-1.4-2.8-3.5-2.8h-4.3v5.7
						C364.8,11.4,369.2,11.4,369.2,11.4z"/>
					<path class="st0" d="M382.6,0.2h6.5v23.4h-6.5V0.2z"/>
					<path class="st0" d="M391.6,20.1l3.6-4.3c2.3,1.8,4.9,2.8,7.6,2.8c1.8,0,2.7-0.6,2.7-1.6v-0.1c0-1-0.8-1.5-4-2.3
						c-5-1.1-8.8-2.5-8.8-7.3V7.3c0-4.4,3.5-7.5,9.1-7.5c4,0,7.1,1.1,9.6,3.1l-3.2,4.6c-2.1-1.5-4.5-2.3-6.6-2.3
						c-1.6,0-2.3,0.6-2.3,1.5v0.1c0,1.1,0.8,1.5,4.1,2.3c5.4,1.2,8.7,2.9,8.7,7.3v0.1c0,4.8-3.8,7.6-9.5,7.6
						C398.4,24,394.5,22.7,391.6,20.1z"/>
				</g>
			</g>
		</g>
		<line class="st1" x1="309.4" y1="75.6" x2="595.7" y2="75.6"/>
		<line class="st1" x1="309.4" y1="169.8" x2="595.7" y2="169.8"/>
		<polygon class="st2" points="98.7,166.6 50.1,90.8 126.3,42.9 174.9,118.7 		"/>
		<g class="st3">
			<g class="st4">
				<polygon class="st5" points="122.2,126.3 32.4,149.6 9.1,59.8 98.9,36.5 				"/>
				<rect x="9.1" y="36.5" class="st6" width="113.1" height="113.1"/>
			</g>
		</g>
		<g class="st3">
			<g class="st4">
				
					<rect x="23.3" y="25.6" transform="matrix(0.6687 -0.7435 0.7435 0.6687 -34.5439 86.3748)" class="st7" width="112.8" height="112.8"/>
				<rect y="2.3" class="st6" width="159.3" height="159.3"/>
			</g>
		</g>
		<g class="st3">
			<g class="st4">
				
					<rect x="18.3" y="78.6" transform="matrix(0.2275 -0.9738 0.9738 0.2275 -68.145 128.5923)" class="st8" width="57.3" height="57.3"/>
				<rect x="12.5" y="72.8" class="st6" width="68.9" height="68.9"/>
			</g>
		</g>
	</g>
	<g class="st3">
		<path class="st9" d="M28.3,90.1h10V120h-10C28.3,120,28.3,90.1,28.3,90.1z"/>
		<path class="st9" d="M41.8,90.1h9.3l10.6,13.2V90.1h9.9V120h-8.9l-11.1-13.8V120h-9.9C41.8,120,41.8,90.1,41.8,90.1z"/>
		<path class="st9" d="M82.7,98.5h-8.8v-8.4h27.6v8.4h-8.8V120h-10L82.7,98.5L82.7,98.5z"/>
		<path class="st9" d="M103.7,90.1h25.5v8.2h-15.7v3h14.6v7.2h-14.6v3.2h15.9v8.2h-25.7V90.1z"/>
		<path class="st9" d="M132.1,90.1h14.6c5.3,0,8.7,1.3,10.7,3.4c1.8,1.8,2.7,4,2.7,7.1v0.1c0,4.4-2.3,7.4-5.9,9.1l7,10.2h-11.4
			l-5.6-8.5h-2.1v8.5h-10L132.1,90.1L132.1,90.1z M146.4,104.3c2.4,0,3.8-1.1,3.8-2.9v-0.1c0-1.9-1.5-2.9-3.8-2.9h-4.4v5.8
			L146.4,104.3L146.4,104.3z"/>
	</g>
	<g class="st3">
		<path class="st10" d="M162.6,90.1H173l6.4,10.5l6.4-10.5h10.4V120h-9.9v-14.8l-6.9,10.6h-0.2l-6.9-10.6V120h-9.8L162.6,90.1
			L162.6,90.1z"/>
		<path class="st10" d="M210,89.9h9.9l12.6,30.1h-10.8l-1.6-4h-10.4l-1.5,4h-10.7L210,89.9z M217.6,108.9l-2.7-7.2l-2.7,7.2H217.6z"
			/>
		<path class="st10" d="M237.6,98.5h-8.8v-8.4h27.6v8.4h-8.8V120h-10L237.6,98.5L237.6,98.5z"/>
	</g>
	<g class="st3">
		<line class="st11" x1="162.7" y1="75.6" x2="256.3" y2="75.6"/>
	</g>
</g>
<g>
	<polygon class="st12" points="99.3,165.3 51,89.9 126.8,42.2 175.2,117.6 	"/>
	<path class="st13" d="M13.4,71.6l-3.3-12.6l19-4.9L13.4,71.6z M33.3,148.3l-4.5-17.3l31.4,7.3l2.6,2.3L33.3,148.3"/>
	<polygon class="st14" points="114.2,127.4 121.2,119.5 122.7,125.2 	"/>
	<path class="st15" d="M104.8,56l-5.3-20.3L29.2,54l47-52.2l47.3,42.5L104.8,56z M153.4,83.7l-18.9-29.4l25,22.5L153.4,83.7
		 M19.6,101.9L1.1,85.2l12.3-13.7l7,26.9L19.6,101.9 M84.6,160.3l-21.8-19.6l3.5-0.9l2.9,0.7l0.4-1.5l11.1-2.9l10.7,16.7L84.6,160.3
		"/>
	<path class="st16" d="M121.2,119.5L104.8,56l18.7-11.7l11.1,10l18.9,29.4L121.2,119.5z M91.3,152.8l-10.7-16.7l33.6-8.7L91.3,152.8
		"/>
	<path class="st17" d="M20.4,98.4l-7-26.9L29.2,54l70.3-18.2l5.3,20.3L65.2,81l-38.6-9L20.4,98.4z M69.5,139l3.5-14.8l7.7,11.9
		L69.5,139 M62.8,140.7l-2.6-2.3l6.1,1.4L62.8,140.7"/>
	<polygon class="st18" points="80.6,136.1 72.9,124.2 82.1,84.9 65.2,81 104.8,56 121.2,119.5 114.2,127.4 	"/>
	<polygon class="st19" points="28.8,131.1 13.6,127.5 19.6,101.9 21.8,103.8 	"/>
	<polygon class="st20" points="60.2,138.4 28.8,131.1 21.8,103.8 	"/>
	<path class="st21" d="M21.8,103.8l-2.2-2l0.8-3.4L21.8,103.8z M69.1,140.5l-2.9-0.7l3.2-0.8L69.1,140.5"/>
	<polygon class="st22" points="66.2,139.8 60.2,138.4 21.8,103.8 20.4,98.4 26.5,71.9 65.2,81 51,89.9 72.9,124.2 69.5,139 	"/>
	<polygon class="st23" points="72.9,124.2 51,89.9 65.2,81 82.1,84.9 	"/>
	<rect x="29.3" y="89.1" class="st24" width="9.9" height="29.7"/>
	<polygon class="st24" points="42.7,89.1 52,89.1 62.5,102.3 62.5,89.1 72.4,89.1 72.4,118.9 63.5,118.9 52.5,105.1 52.5,118.9 
		42.7,118.9 	"/>
	<polygon class="st24" points="83.4,97.6 74.6,97.6 74.6,89.1 102,89.1 102,97.6 93.3,97.6 93.3,118.9 83.4,118.9 	"/>
	<polygon class="st24" points="104.3,89.1 129.6,89.1 129.6,97.3 114.1,97.3 114.1,100.3 128.6,100.3 128.6,107.5 114.1,107.5 
		114.1,110.7 129.9,110.7 129.9,118.9 104.3,118.9 	"/>
	<path class="st24" d="M132.5,89.1H147c5.3,0,8.6,1.3,10.7,3.4c1.8,1.8,2.7,4,2.7,7v0.1c0,4.3-2.2,7.3-5.9,9.1l6.9,10.1h-11.3
		l-5.6-8.5h-2.1v8.5h-9.9L132.5,89.1L132.5,89.1z M146.7,103.3c2.4,0,3.8-1.1,3.8-2.9v-0.1c0-1.9-1.5-2.8-3.8-2.8h-4.3v5.8
		L146.7,103.3L146.7,103.3z"/>
	<polygon class="st25" points="162.9,89.1 173.2,89.1 179.6,99.6 186,89.1 196.3,89.1 196.3,118.9 186.4,118.9 186.4,104.1 
		179.6,114.7 179.4,114.7 172.6,104.1 172.6,118.9 162.9,118.9 	"/>
	<path class="st25" d="M210.1,88.9h9.8l12.5,29.9h-10.8l-1.6-4h-10.4l-1.5,4h-10.6L210.1,88.9z M217.6,107.8l-2.7-7.2l-2.7,7.2
		H217.6z"/>
	<polygon class="st25" points="237.5,97.6 228.8,97.6 228.8,89.1 256.2,89.1 256.2,97.6 247.4,97.6 247.4,118.9 237.5,118.9 	"/>
	<rect x="163" y="71.5" class="st25" width="93.2" height="6.3"/>
</g>
<g>
	<path class="st26" d="M314.5,39.7l-3.7,0.8l-1.2-4.7l6.4-1.8h4.4v22h-6V39.7z"/>
	<path class="st26" d="M323.8,53.9l2.8-4.2c1.5,1.2,2.9,1.8,4.7,1.8c2.5,0,3.8-1.8,4.1-4.6c-1.1,1.1-2.7,1.8-4.6,1.8
		c-4.3,0-7.3-2.6-7.3-6.9v-0.1c0-4.8,3.7-8,8.7-8c3.2,0,5.1,0.9,6.7,2.6c1.6,1.6,2.6,4.1,2.6,8.1v0.1c0,7.2-3.6,12-10.1,12
		C328.2,56.5,325.8,55.5,323.8,53.9z M335.5,41.5L335.5,41.5c0-1.8-1.2-3-3.1-3s-3.1,1.3-3.1,2.9v0.1c0,1.7,1.2,2.9,3.1,2.9
		S335.5,43.1,335.5,41.5z"/>
	<path class="st26" d="M351.8,43.7H362v5.2h-10.3V43.7z"/>
	<path class="st26" d="M372,51.5l8.2-6.3c2-1.6,2.8-2.6,2.8-3.9c0-1.4-1-2.2-2.4-2.2s-2.6,0.8-4.3,2.8l-4.1-3.4
		c2.3-3,4.7-4.7,8.9-4.7c4.8,0,8.1,2.8,8.1,7v0.1c0,3.5-1.8,5.3-5.1,7.7l-3.8,2.6h9v4.9H372V51.5z"/>
	<path class="st26" d="M401.6,51.8H391l-1-4.3L401.3,34h6.1v13.3h2.8v4.5h-2.8v4.3h-5.9V51.8z M401.6,47.3V41l-5.2,6.3H401.6z"/>
	<path class="st26" d="M428.3,34h5.8l9.3,22H437l-1.6-3.9H427l-1.6,3.9H419L428.3,34z M433.7,47.4l-2.4-6.2l-2.5,6.2H433.7z"/>
	<path class="st26" d="M445.2,34.2h9.4c5.5,0,9.1,2.8,9.1,7.7v0.1c0,5.2-4,7.9-9.4,7.9h-3v6.3h-6.1V34.2z M454.1,45.1
		c2.2,0,3.5-1.1,3.5-2.8v-0.1c0-1.9-1.3-2.9-3.5-2.9h-2.8v5.8H454.1z"/>
	<path class="st26" d="M465.7,34.2h10.3c3.3,0,5.7,0.9,7.1,2.4c1.3,1.3,1.9,2.9,1.9,5.1v0.1c0,3.3-1.8,5.6-4.5,6.7l5.2,7.6h-7
		l-4.4-6.6h-2.7v6.6h-6.1V34.2z M475.8,44.7c2.1,0,3.3-1,3.3-2.6V42c0-1.7-1.3-2.6-3.3-2.6h-4v5.3H475.8z"/>
	<path class="st26" d="M487.9,34.2h6.1v21.9h-6.1V34.2z"/>
	<path class="st26" d="M497.5,34.2h6.1v16.6h10.6v5.3h-16.7V34.2z"/>
	<path class="st26" d="M523.6,51.5l8.2-6.3c2-1.6,2.8-2.6,2.8-3.9c0-1.4-1-2.2-2.4-2.2s-2.6,0.8-4.3,2.8l-4.1-3.4
		c2.3-3,4.7-4.7,8.9-4.7c4.8,0,8.1,2.8,8.1,7v0.1c0,3.5-1.8,5.3-5.1,7.7l-3.8,2.6h9v4.9h-17.3V51.5z"/>
	<path class="st26" d="M542.9,45.2L542.9,45.2c0-6.3,3.9-11.4,10.2-11.4s10.1,5.1,10.1,11.3v0.1c0,6.2-3.9,11.4-10.2,11.4
		S542.9,51.4,542.9,45.2z M557,45.2L557,45.2c0-3.5-1.7-6.1-4.1-6.1c-2.4,0-4,2.4-4,5.9v0.1c0,3.5,1.6,6,4.1,6
		C555.5,51.1,557,48.6,557,45.2z"/>
	<path class="st26" d="M564.6,51.5l8.2-6.3c2-1.6,2.8-2.6,2.8-3.9c0-1.4-1-2.2-2.4-2.2s-2.6,0.8-4.3,2.8l-4.1-3.4
		c2.3-3,4.7-4.7,8.9-4.7c4.8,0,8.1,2.8,8.1,7v0.1c0,3.5-1.8,5.3-5.1,7.7l-3.8,2.6h9v4.9h-17.3V51.5z"/>
	<path class="st26" d="M587.8,39.7l-3.7,0.8l-1.2-4.7l6.4-1.8h4.4v22h-6V39.7z"/>
</g>
</svg>
