<?xml version="1.0" encoding="utf-8"?>
<!-- Generator: Adobe Illustrator 16.0.0, SVG Export Plug-In . SVG Version: 6.00 Build 0)  -->
<!DOCTYPE svg PUBLIC "-//W3C//DTD SVG 1.1//EN" "http://www.w3.org/Graphics/SVG/1.1/DTD/svg11.dtd">
<svg version="1.1" id="Calque_1" xmlns="http://www.w3.org/2000/svg" xmlns:xlink="http://www.w3.org/1999/xlink" x="0px" y="0px"
	 width="158.508px" height="101.609px" viewBox="0 0 158.508 101.609" enable-background="new 0 0 158.508 101.609"
	 xml:space="preserve">
<polygon fill="#585857" points="61.047,101.609 30.986,54.75 78.115,25.118 108.175,71.978 "/>
<path fill="#417285" d="M7.648,43.358l-2.031-7.832l11.836-3.07L7.648,43.358z M20.021,91.071l-2.784-10.737l19.482,4.551l1.6,1.439
	L20.021,91.071"/>
<polygon fill="#223235" points="70.274,78.035 74.655,73.163 75.563,76.663 "/>
<path fill="#FFDB06" d="M64.429,33.723l-3.267-12.602L17.453,32.456L46.643,0L76.03,26.429L64.429,33.723z M94.663,50.914
	L82.947,32.649l15.558,13.993L94.663,50.914 M11.476,62.183L0,51.862l7.648-8.504l4.327,16.687L11.476,62.183 M51.865,98.507
	L38.319,86.324l2.161-0.56l1.796,0.42l0.221-0.943l6.901-1.791l6.665,10.389L51.865,98.507"/>
<path fill="#5A4F22" d="M74.655,73.163l-10.226-39.44l11.6-7.295l6.917,6.221l11.717,18.265L74.655,73.163z M56.063,93.839
	L49.397,83.45l20.877-5.415L56.063,93.839"/>
<path fill="#4C6634" d="M11.975,60.044L7.647,43.357l9.805-10.901l43.709-11.335l3.267,12.601L39.814,49.199l-23.997-5.604
	L11.975,60.044z M42.497,85.24l2.148-9.198l4.753,7.408L42.497,85.24 M38.319,86.324l-1.6-1.439l3.761,0.879L38.319,86.324"/>
<polygon fill="#24311E" points="49.397,83.45 44.645,76.042 50.342,51.657 39.814,49.199 64.429,33.723 74.656,73.164 
	70.275,78.035 "/>
<polygon fill="#C7C6C7" points="17.236,80.334 7.753,78.118 11.476,62.183 12.851,63.42 "/>
<polygon fill="#38606C" points="36.719,84.885 17.237,80.333 12.851,63.419 "/>
<path fill="#C6AB28" d="M12.85,63.42l-1.374-1.237l0.499-2.138L12.85,63.42z M42.276,86.184l-1.797-0.42l2.017-0.523L42.276,86.184"
	/>
<polygon fill="#415832" points="40.479,85.764 36.718,84.885 12.85,63.419 11.975,60.045 15.817,43.595 39.815,49.2 30.986,54.751 
	44.646,76.042 42.496,85.241 "/>
<polygon fill="#222C1C" points="44.645,76.042 30.986,54.751 39.815,49.199 50.341,51.658 "/>
<rect x="17.496" y="54.29" fill="#FFFFFF" width="6.171" height="18.459"/>
<polygon fill="#FFFFFF" points="25.831,54.291 31.604,54.291 38.171,62.438 38.171,54.291 44.29,54.291 44.29,72.75 38.805,72.75 
	31.948,64.232 31.948,72.75 25.831,72.75 "/>
<polygon fill="#FFFFFF" points="51.124,59.512 45.69,59.512 45.69,54.29 62.727,54.29 62.727,59.512 57.294,59.512 57.294,72.75 
	51.124,72.75 "/>
<polygon fill="#FFFFFF" points="64.126,54.291 79.871,54.291 79.871,59.354 70.191,59.354 70.191,61.226 79.21,61.226 79.21,65.683 
	70.191,65.683 70.191,67.687 80.002,67.687 80.002,72.75 64.126,72.75 "/>
<path fill="#FFFFFF" d="M81.667,54.291h9.019c3.269,0,5.353,0.818,6.645,2.11c1.108,1.107,1.688,2.479,1.688,4.378v0.051
	c0,2.691-1.398,4.564-3.64,5.644l4.299,6.276h-7.041l-3.481-5.274h-1.319v5.274h-6.17V54.291z M90.5,63.072
	c1.477,0,2.373-0.659,2.373-1.793v-0.053c0-1.187-0.923-1.767-2.347-1.767h-2.69v3.613H90.5z"/>
<polygon fill="#3D3D3B" points="100.525,54.291 106.96,54.291 110.915,60.778 114.871,54.291 121.305,54.291 121.305,72.75 
	115.161,72.75 115.161,63.6 110.915,70.166 110.809,70.166 106.564,63.6 106.564,72.75 100.525,72.75 "/>
<path fill="#3D3D3B" d="M129.854,54.159h6.118l7.779,18.591h-6.698l-0.976-2.478h-6.461l-0.949,2.478h-6.593L129.854,54.159z
	 M134.547,65.894l-1.688-4.482l-1.688,4.482H134.547z"/>
<polygon fill="#3D3D3B" points="146.891,59.512 141.458,59.512 141.458,54.29 158.508,54.29 158.508,59.512 153.062,59.512 
	153.062,72.75 146.891,72.75 "/>
<rect x="100.593" y="43.336" fill="#3D3D3B" width="57.915" height="3.92"/>
</svg>
