<?xml version="1.0" encoding="utf-8"?>
<!-- Generator: Adobe Illustrator 23.0.1, SVG Export Plug-In . SVG Version: 6.00 Build 0)  -->
<svg version="1.1" id="Calque_1" xmlns="http://www.w3.org/2000/svg" xmlns:xlink="http://www.w3.org/1999/xlink" x="0px" y="0px"
	 viewBox="0 0 368.4 107.1" style="enable-background:new 0 0 368.4 107.1;" xml:space="preserve">
<style type="text/css">
	.st0{fill:#3D3D3B;}
	.st1{fill:#3D3D3C;}
	.st2{fill:#585857;}
	.st3{fill:#417285;}
	.st4{fill:#223235;}
	.st5{fill:#FFDB06;}
	.st6{fill:#5A4F22;}
	.st7{fill:#4C6634;}
	.st8{fill:#24311E;}
	.st9{fill:#C7C6C7;}
	.st10{fill:#38606C;}
	.st11{fill:#C6AB28;}
	.st12{fill:#415832;}
	.st13{fill:#222C1C;}
	.st14{fill:#FFFFFF;}
</style>
<path class="st0" d="M191.8,64.5l0.8-0.9c0.7,0.6,1.4,0.9,2.3,0.9c0.8,0,1.3-0.4,1.3-0.9v0c0-0.5-0.3-0.8-1.6-1.1
	c-1.5-0.4-2.4-0.8-2.4-2.2v0c0-1.2,1-2.1,2.5-2.1c1.1,0,1.9,0.3,2.6,0.9l-0.7,1c-0.7-0.5-1.3-0.7-2-0.7c-0.7,0-1.2,0.4-1.2,0.9v0
	c0,0.6,0.3,0.8,1.7,1.1c1.5,0.4,2.3,0.9,2.3,2.1v0c0,1.4-1.1,2.2-2.6,2.2C193.7,65.7,192.6,65.3,191.8,64.5"/>
<path class="st0" d="M201.3,58.2h1.2l3.2,7.3h-1.3l-0.7-1.8h-3.4l-0.7,1.8h-1.3L201.3,58.2z M203.1,62.7l-1.3-2.9l-1.2,2.9H203.1z"
	/>
<polygon class="st0" points="206.9,58.3 208.2,58.3 208.2,64.4 212,64.4 212,65.5 206.9,65.5 "/>
<path class="st0" d="M212.6,61.9L212.6,61.9c0-2.1,1.6-3.8,3.8-3.8c2.2,0,3.8,1.7,3.8,3.7v0c0,2-1.6,3.8-3.8,3.8
	C214.1,65.7,212.6,64,212.6,61.9 M218.8,61.9L218.8,61.9c0-1.4-1-2.6-2.5-2.6c-1.4,0-2.4,1.2-2.4,2.6v0c0,1.4,1,2.6,2.5,2.6
	C217.8,64.5,218.8,63.3,218.8,61.9"/>
<polygon class="st0" points="221.7,58.3 222.9,58.3 226.8,63.3 226.8,58.3 228,58.3 228,65.5 227,65.5 223,60.4 223,65.5 
	221.7,65.5 "/>
<rect x="233.1" y="58.3" class="st0" width="1.3" height="7.3"/>
<polygon class="st0" points="236.3,58.3 237.5,58.3 241.4,63.3 241.4,58.3 242.6,58.3 242.6,65.5 241.5,65.5 237.5,60.4 237.5,65.5 
	236.3,65.5 "/>
<polygon class="st0" points="246.3,59.5 244,59.5 244,58.3 249.8,58.3 249.8,59.5 247.5,59.5 247.5,65.5 246.3,65.5 "/>
<polygon class="st0" points="251.2,58.3 256.6,58.3 256.6,59.4 252.5,59.4 252.5,61.3 256.1,61.3 256.1,62.5 252.5,62.5 252.5,64.4 
	256.6,64.4 256.6,65.5 251.2,65.5 "/>
<path class="st0" d="M258.1,58.3h3.2c0.9,0,1.6,0.3,2.1,0.7c0.4,0.4,0.6,0.9,0.6,1.6v0c0,1.2-0.7,1.9-1.7,2.2l2,2.7h-1.5L261,63
	h-1.6v2.5h-1.3V58.3z M261.3,61.9c0.9,0,1.5-0.5,1.5-1.2v0c0-0.8-0.6-1.2-1.5-1.2h-1.9v2.4C259.4,61.9,261.3,61.9,261.3,61.9z"/>
<polygon class="st0" points="265.6,58.3 266.8,58.3 270.7,63.3 270.7,58.3 271.9,58.3 271.9,65.5 270.9,65.5 266.9,60.4 266.9,65.5 
	265.6,65.5 "/>
<path class="st0" d="M276.4,58.2h1.2l3.2,7.3h-1.3l-0.7-1.8h-3.4l-0.7,1.8h-1.3L276.4,58.2z M278.2,62.7l-1.3-2.9l-1.2,2.9H278.2z"
	/>
<polygon class="st0" points="282.8,59.5 280.5,59.5 280.5,58.3 286.4,58.3 286.4,59.5 284.1,59.5 284.1,65.5 282.8,65.5 "/>
<rect x="287.8" y="58.3" class="st0" width="1.3" height="7.3"/>
<path class="st0" d="M290.7,61.9L290.7,61.9c0-2.1,1.6-3.8,3.8-3.8c2.2,0,3.8,1.7,3.8,3.7v0c0,2-1.6,3.8-3.8,3.8
	C292.3,65.7,290.7,64,290.7,61.9 M297,61.9L297,61.9c0-1.4-1-2.6-2.5-2.6c-1.4,0-2.4,1.2-2.4,2.6v0c0,1.4,1,2.6,2.5,2.6
	C296,64.5,297,63.3,297,61.9"/>
<polygon class="st0" points="299.8,58.3 301,58.3 304.9,63.3 304.9,58.3 306.2,58.3 306.2,65.5 305.1,65.5 301.1,60.4 301.1,65.5 
	299.8,65.5 "/>
<path class="st0" d="M310.6,58.2h1.2l3.2,7.3h-1.3l-0.7-1.8h-3.4l-0.7,1.8h-1.3L310.6,58.2z M312.4,62.7l-1.3-2.9l-1.2,2.9H312.4z"
	/>
<polygon class="st0" points="316.2,58.3 317.5,58.3 317.5,64.4 321.3,64.4 321.3,65.5 316.2,65.5 "/>
<path class="st0" d="M192.2,72.8h2.7c2.3,0,3.9,1.6,3.9,3.6v0c0,2-1.6,3.6-3.9,3.6h-2.7V72.8z M193.5,74v4.9h1.4
	c1.5,0,2.5-1,2.5-2.4v0c0-1.4-1-2.5-2.5-2.5H193.5z"/>
<polygon class="st0" points="200.3,72.8 205.7,72.8 205.7,73.9 201.6,73.9 201.6,75.8 205.3,75.8 205.3,77 201.6,77 201.6,78.9 
	205.8,78.9 205.8,80 200.3,80 "/>
<polygon class="st0" points="210.4,72.8 211.7,72.8 211.7,78.9 215.5,78.9 215.5,80 210.4,80 "/>
<path class="st0" d="M219.4,72.7h1.2l3.2,7.3h-1.3l-0.7-1.8h-3.4l-0.7,1.8h-1.3L219.4,72.7z M221.2,77.2l-1.3-2.9l-1.2,2.9H221.2z"
	/>
<path class="st0" d="M227.8,76.4L227.8,76.4c0-2.1,1.5-3.8,3.7-3.8c1.3,0,2.1,0.5,2.8,1.1l-0.8,0.9c-0.6-0.5-1.2-0.9-2-0.9
	c-1.4,0-2.4,1.1-2.4,2.6v0c0,1.4,1,2.6,2.4,2.6c0.9,0,1.5-0.4,2.1-0.9l0.8,0.8c-0.8,0.8-1.6,1.3-2.9,1.3
	C229.3,80.2,227.8,78.5,227.8,76.4"/>
<path class="st0" d="M235.2,76.4L235.2,76.4c0-2.1,1.6-3.8,3.8-3.8c2.2,0,3.8,1.7,3.8,3.7v0c0,2-1.6,3.8-3.8,3.8
	C236.8,80.2,235.2,78.5,235.2,76.4 M241.5,76.4L241.5,76.4c0-1.4-1-2.6-2.5-2.6c-1.4,0-2.4,1.2-2.4,2.6v0c0,1.4,1,2.6,2.5,2.6
	C240.5,79,241.5,77.8,241.5,76.4"/>
<polygon class="st0" points="244.3,72.8 245.5,72.8 249.4,77.8 249.4,72.8 250.7,72.8 250.7,80 249.6,80 245.6,74.9 245.6,80 
	244.3,80 "/>
<path class="st0" d="M252,79l0.8-0.9c0.7,0.6,1.4,0.9,2.3,0.9c0.8,0,1.3-0.4,1.3-0.9v0c0-0.5-0.3-0.8-1.6-1.1
	c-1.5-0.4-2.4-0.8-2.4-2.2v0c0-1.2,1-2.1,2.5-2.1c1.1,0,1.9,0.3,2.6,0.9l-0.7,1c-0.7-0.5-1.3-0.7-2-0.7c-0.7,0-1.2,0.4-1.2,0.9v0
	c0,0.6,0.3,0.8,1.7,1.1c1.5,0.4,2.3,0.9,2.3,2.1v0c0,1.4-1.1,2.2-2.6,2.2C253.9,80.2,252.9,79.8,252,79"/>
<polygon class="st0" points="260.8,74 258.5,74 258.5,72.8 264.4,72.8 264.4,74 262.1,74 262.1,80 260.8,80 "/>
<path class="st0" d="M265.7,72.8h3.2c0.9,0,1.6,0.3,2.1,0.7c0.4,0.4,0.6,0.9,0.6,1.6v0c0,1.2-0.7,1.9-1.7,2.2l2,2.7h-1.5l-1.8-2.5
	H267V80h-1.3V72.8z M268.9,76.4c0.9,0,1.5-0.5,1.5-1.2v0c0-0.8-0.6-1.2-1.5-1.2H267v2.4C267,76.4,268.9,76.4,268.9,76.4z"/>
<path class="st0" d="M273.1,77v-4.2h1.3v4.1c0,1.3,0.7,2.1,1.8,2.1c1.1,0,1.8-0.7,1.8-2v-4.2h1.3v4.1c0,2.2-1.2,3.3-3.1,3.3
	C274.3,80.2,273.1,79.1,273.1,77"/>
<path class="st0" d="M280.7,76.4L280.7,76.4c0-2.1,1.5-3.8,3.7-3.8c1.3,0,2.1,0.5,2.8,1.1l-0.8,0.9c-0.6-0.5-1.2-0.9-2-0.9
	c-1.4,0-2.4,1.1-2.4,2.6v0c0,1.4,1,2.6,2.4,2.6c0.9,0,1.5-0.4,2.1-0.9l0.8,0.8c-0.8,0.8-1.6,1.3-2.9,1.3
	C282.3,80.2,280.7,78.5,280.7,76.4"/>
<polygon class="st0" points="290.5,74 288.2,74 288.2,72.8 294,72.8 294,74 291.8,74 291.8,80 290.5,80 "/>
<rect x="295.5" y="72.8" class="st0" width="1.3" height="7.3"/>
<path class="st0" d="M298.4,76.4L298.4,76.4c0-2.1,1.6-3.8,3.8-3.8c2.2,0,3.8,1.7,3.8,3.7v0c0,2-1.6,3.8-3.8,3.8
	C299.9,80.2,298.4,78.5,298.4,76.4 M304.6,76.4L304.6,76.4c0-1.4-1-2.6-2.5-2.6c-1.4,0-2.4,1.2-2.4,2.6v0c0,1.4,1,2.6,2.5,2.6
	C303.6,79,304.6,77.8,304.6,76.4"/>
<polygon class="st0" points="307.5,72.8 308.7,72.8 312.5,77.8 312.5,72.8 313.8,72.8 313.8,80 312.7,80 308.7,74.9 308.7,80 
	307.5,80 "/>
<polygon class="st0" points="192.2,87.3 197.6,87.3 197.6,88.4 193.5,88.4 193.5,90.3 197.2,90.3 197.2,91.5 193.5,91.5 193.5,93.4 
	197.7,93.4 197.7,94.5 192.2,94.5 "/>
<polygon class="st0" points="201,88.5 198.7,88.5 198.7,87.3 204.6,87.3 204.6,88.5 202.2,88.5 202.2,94.5 201,94.5 "/>
<path class="st0" d="M209,87.3h2.7c2.3,0,3.9,1.6,3.9,3.6v0c0,2-1.6,3.6-3.9,3.6H209V87.3z M210.3,88.5v4.9h1.4c1.5,0,2.5-1,2.5-2.4
	v0c0-1.4-1-2.5-2.5-2.5H210.3z"/>
<polygon class="st0" points="217.1,87.3 222.5,87.3 222.5,88.4 218.4,88.4 218.4,90.3 222,90.3 222,91.5 218.4,91.5 218.4,93.4 
	222.5,93.4 222.5,94.5 217.1,94.5 "/>
<path class="st0" d="M223.6,93.5l0.8-0.9c0.7,0.6,1.4,0.9,2.3,0.9c0.8,0,1.3-0.4,1.3-0.9v0c0-0.5-0.3-0.8-1.6-1.1
	c-1.5-0.4-2.4-0.8-2.4-2.2v0c0-1.2,1-2.1,2.5-2.1c1.1,0,1.9,0.3,2.6,0.9l-0.7,1c-0.7-0.5-1.3-0.7-2-0.7c-0.7,0-1.2,0.4-1.2,0.9v0
	c0,0.6,0.3,0.8,1.7,1.1c1.5,0.4,2.3,0.9,2.3,2.1v0c0,1.4-1.1,2.2-2.6,2.2C225.5,94.6,224.4,94.3,223.6,93.5"/>
<rect x="233.8" y="87.3" class="st0" width="1.3" height="7.3"/>
<polygon class="st0" points="237.1,87.3 238.2,87.3 242.1,92.3 242.1,87.3 243.4,87.3 243.4,94.5 242.3,94.5 238.3,89.4 238.3,94.5 
	237.1,94.5 "/>
<polygon class="st0" points="245.2,87.3 250.6,87.3 250.6,88.5 246.5,88.5 246.5,90.4 250.2,90.4 250.2,91.6 246.5,91.6 246.5,94.5 
	245.2,94.5 "/>
<path class="st0" d="M252,87.3h3.2c0.9,0,1.6,0.3,2.1,0.7c0.4,0.4,0.6,0.9,0.6,1.6v0c0,1.2-0.7,1.9-1.7,2.2l2,2.7h-1.5l-1.8-2.5
	h-1.6v2.5H252L252,87.3L252,87.3z M255.2,90.9c0.9,0,1.5-0.5,1.5-1.2v0c0-0.8-0.6-1.2-1.5-1.2h-1.9v2.4H255.2z"/>
<path class="st0" d="M262.1,87.2h1.2l3.2,7.3h-1.3l-0.7-1.8H261l-0.7,1.8h-1.3L262.1,87.2z M263.9,91.7l-1.3-2.9l-1.2,2.9H263.9z"/>
<path class="st0" d="M267.1,93.5l0.8-0.9c0.7,0.6,1.4,0.9,2.3,0.9c0.8,0,1.3-0.4,1.3-0.9v0c0-0.5-0.3-0.8-1.6-1.1
	c-1.5-0.4-2.4-0.8-2.4-2.2v0c0-1.2,1-2.1,2.5-2.1c1.1,0,1.9,0.3,2.6,0.9l-0.7,1c-0.7-0.5-1.3-0.7-2-0.7c-0.7,0-1.2,0.4-1.2,0.9v0
	c0,0.6,0.3,0.8,1.7,1.1c1.5,0.4,2.3,0.9,2.3,2.1v0c0,1.4-1.1,2.2-2.6,2.2C269,94.6,268,94.3,267.1,93.5"/>
<polygon class="st0" points="275.9,88.5 273.6,88.5 273.6,87.3 279.4,87.3 279.4,88.5 277.1,88.5 277.1,94.5 275.9,94.5 "/>
<path class="st0" d="M280.8,87.3h3.2c0.9,0,1.6,0.3,2.1,0.7c0.4,0.4,0.6,0.9,0.6,1.6v0c0,1.2-0.7,1.9-1.7,2.2l2,2.7h-1.5l-1.8-2.5
	h-1.6v2.5h-1.3L280.8,87.3L280.8,87.3z M283.9,90.9c0.9,0,1.5-0.5,1.5-1.2v0c0-0.8-0.6-1.2-1.5-1.2h-1.9v2.4H283.9z"/>
<path class="st0" d="M288.2,91.5v-4.2h1.3v4.1c0,1.3,0.7,2.1,1.8,2.1c1.1,0,1.8-0.7,1.8-2v-4.2h1.3v4.1c0,2.2-1.2,3.3-3.1,3.3
	C289.4,94.7,288.2,93.6,288.2,91.5"/>
<path class="st0" d="M295.8,90.9L295.8,90.9c0-2.1,1.5-3.8,3.7-3.8c1.3,0,2.1,0.5,2.8,1.1l-0.8,0.9c-0.6-0.5-1.2-0.9-2-0.9
	c-1.4,0-2.4,1.1-2.4,2.6v0c0,1.4,1,2.6,2.4,2.6c0.9,0,1.5-0.4,2.1-0.9l0.8,0.8c-0.8,0.8-1.6,1.3-2.9,1.3
	C297.4,94.7,295.8,93,295.8,90.9"/>
<polygon class="st0" points="305.5,88.5 303.2,88.5 303.2,87.3 309.1,87.3 309.1,88.5 306.8,88.5 306.8,94.5 305.5,94.5 "/>
<path class="st0" d="M310.4,91.5v-4.2h1.3v4.1c0,1.3,0.7,2.1,1.8,2.1c1.1,0,1.8-0.7,1.8-2v-4.2h1.3v4.1c0,2.2-1.2,3.3-3.1,3.3
	C311.6,94.7,310.4,93.6,310.4,91.5"/>
<path class="st0" d="M318.3,87.3h3.2c0.9,0,1.6,0.3,2.1,0.7c0.4,0.4,0.6,0.9,0.6,1.6v0c0,1.2-0.7,1.9-1.7,2.2l2,2.7H323l-1.8-2.5
	h-1.6v2.5h-1.3V87.3z M321.4,90.9c0.9,0,1.5-0.5,1.5-1.2v0c0-0.8-0.6-1.2-1.5-1.2h-1.9v2.4H321.4z"/>
<polygon class="st0" points="325.8,87.3 331.2,87.3 331.2,88.4 327.1,88.4 327.1,90.3 330.7,90.3 330.7,91.5 327.1,91.5 327.1,93.4 
	331.2,93.4 331.2,94.5 325.8,94.5 "/>
<path class="st0" d="M332.2,93.5l0.8-0.9c0.7,0.6,1.4,0.9,2.3,0.9c0.8,0,1.3-0.4,1.3-0.9v0c0-0.5-0.3-0.8-1.6-1.1
	c-1.5-0.4-2.4-0.8-2.4-2.2v0c0-1.2,1-2.1,2.5-2.1c1.1,0,1.9,0.3,2.6,0.9l-0.7,1c-0.7-0.5-1.3-0.7-2-0.7c-0.7,0-1.2,0.4-1.2,0.9v0
	c0,0.6,0.3,0.8,1.7,1.1c1.5,0.4,2.3,0.9,2.3,2.1v0c0,1.4-1.1,2.2-2.6,2.2C334.2,94.6,333.1,94.3,332.2,93.5"/>
<path class="st1" d="M196.6,3.6v3.8h1.9c1.4,0,2.3-0.8,2.3-1.9v0c0-1.2-0.9-1.9-2.3-1.9L196.6,3.6 M196.6,14.7h-4V0.2h6.2
	c3.6,0,6,1.9,6,5.1v0c0,3.4-2.6,5.2-6.2,5.2h-2L196.6,14.7"/>
<path class="st1" d="M212,4.9L210.4,9h3.2L212,4.9z M220.2,14.7h-4.3l-1-2.6h-5.6l-1,2.6H204l6.1-14.6h3.9L220.2,14.7"/>
<path class="st1" d="M225.6,3.7v3.5h2.7c1.3,0,2.2-0.7,2.2-1.7v0c0-1.2-0.9-1.7-2.2-1.7H225.6 M234.9,14.7h-4.6l-2.9-4.4h-1.8v4.4
	h-4V0.2h6.9c2.2,0,3.7,0.6,4.7,1.6c0.9,0.8,1.3,1.9,1.3,3.4v0c0,2.2-1.2,3.7-3,4.5L234.9,14.7"/>
<rect x="236.6" y="0.2" class="st1" width="4" height="14.5"/>
<path class="st1" d="M248.9,15c-2.6,0-5-0.8-6.8-2.4l2.2-2.7c1.4,1.1,3,1.7,4.7,1.7c1.1,0,1.7-0.4,1.7-1v0c0-0.6-0.5-0.9-2.5-1.4
	c-3.1-0.7-5.5-1.6-5.5-4.5v0c0-2.7,2.1-4.6,5.6-4.6c2.5,0,4.4,0.7,6,1.9l-2,2.8c-1.3-1-2.8-1.4-4.1-1.4c-1,0-1.4,0.4-1.4,0.9v0
	c0,0.7,0.5,1,2.5,1.4c3.3,0.7,5.4,1.8,5.4,4.5v0C254.8,13.2,252.5,15,248.9,15"/>
<rect x="191.3" y="44.9" class="st0" width="177" height="3.9"/>
<rect x="191.3" y="103.2" class="st0" width="177" height="3.9"/>
<polygon class="st2" points="61,103.2 31,56.3 78.1,26.7 108.2,73.5 "/>
<path class="st3" d="M7.6,44.9l-2-7.8L17.5,34L7.6,44.9z M20,92.6l-2.8-10.7l19.5,4.6l1.6,1.4L20,92.6"/>
<polygon class="st4" points="70.3,79.6 74.7,74.7 75.6,78.2 "/>
<path class="st5" d="M64.4,35.3l-3.3-12.6L17.5,34L46.6,1.6L76,28L64.4,35.3z M94.7,52.5L82.9,34.2l15.6,14L94.7,52.5 M11.5,63.8
	L0,53.4l7.6-8.5L12,61.6L11.5,63.8 M51.9,100.1L38.3,87.9l2.2-0.6l1.8,0.4l0.2-0.9l6.9-1.8l6.7,10.4L51.9,100.1"/>
<path class="st6" d="M74.7,74.7L64.4,35.3L76,28l6.9,6.2l11.7,18.3L74.7,74.7z M56.1,95.4L49.4,85l20.9-5.4L56.1,95.4"/>
<path class="st7" d="M12,61.6L7.6,44.9L17.5,34l43.7-11.3l3.3,12.6L39.8,50.8l-24-5.6L12,61.6z M42.5,86.8l2.1-9.2l4.8,7.4
	L42.5,86.8 M38.3,87.9l-1.6-1.4l3.8,0.9L38.3,87.9"/>
<polygon class="st8" points="49.4,85 44.6,77.6 50.3,53.2 39.8,50.8 64.4,35.3 74.7,74.7 70.3,79.6 "/>
<polygon class="st9" points="17.2,81.9 7.8,79.7 11.5,63.8 12.9,65 "/>
<polygon class="st10" points="36.7,86.5 17.2,81.9 12.9,65 "/>
<path class="st11" d="M12.9,65l-1.4-1.2l0.5-2.1L12.9,65z M42.3,87.8l-1.8-0.4l2-0.5L42.3,87.8"/>
<polygon class="st12" points="40.5,87.3 36.7,86.5 12.9,65 12,61.6 15.8,45.2 39.8,50.8 31,56.3 44.6,77.6 42.5,86.8 "/>
<polygon class="st13" points="44.6,77.6 31,56.3 39.8,50.8 50.3,53.2 "/>
<rect x="17.5" y="55.9" class="st14" width="6.2" height="18.5"/>
<polygon class="st14" points="25.8,55.9 31.6,55.9 38.2,64 38.2,55.9 44.3,55.9 44.3,74.3 38.8,74.3 31.9,65.8 31.9,74.3 25.8,74.3 
	"/>
<polygon class="st14" points="51.1,61.1 45.7,61.1 45.7,55.9 62.7,55.9 62.7,61.1 57.3,61.1 57.3,74.3 51.1,74.3 "/>
<polygon class="st14" points="64.1,55.9 79.9,55.9 79.9,60.9 70.2,60.9 70.2,62.8 79.2,62.8 79.2,67.2 70.2,67.2 70.2,69.3 80,69.3 
	80,74.3 64.1,74.3 "/>
<path class="st14" d="M81.7,55.9h9c3.3,0,5.4,0.8,6.6,2.1c1.1,1.1,1.7,2.5,1.7,4.4v0.1c0,2.7-1.4,4.6-3.6,5.6l4.3,6.3h-7L89.2,69
	h-1.3v5.3h-6.2C81.7,74.3,81.7,55.9,81.7,55.9z M90.5,64.6c1.5,0,2.4-0.7,2.4-1.8v-0.1c0-1.2-0.9-1.8-2.3-1.8h-2.7v3.6H90.5z"/>
<polygon class="st0" points="100.5,55.9 107,55.9 110.9,62.3 114.9,55.9 121.3,55.9 121.3,74.3 115.2,74.3 115.2,65.2 110.9,71.7 
	110.8,71.7 106.6,65.2 106.6,74.3 100.5,74.3 "/>
<path class="st0" d="M129.9,55.7h6.1l7.8,18.6h-6.7l-1-2.5h-6.5l-0.9,2.5h-6.6L129.9,55.7z M134.5,67.5l-1.7-4.5l-1.7,4.5H134.5z"/>
<polygon class="st0" points="146.9,61.1 141.5,61.1 141.5,55.9 158.5,55.9 158.5,61.1 153.1,61.1 153.1,74.3 146.9,74.3 "/>
<rect x="100.6" y="44.9" class="st0" width="57.9" height="3.9"/>
<g>
	<path class="st3" d="M194.5,27.3l-2.2,0.5l-0.7-2.8l3.9-1.1h2.7v13.3h-3.6V27.3z"/>
	<path class="st3" d="M200.4,35.9l1.7-2.5c0.9,0.7,1.8,1.1,2.8,1.1c1.5,0,2.3-1.1,2.5-2.8c-0.7,0.6-1.6,1.1-2.8,1.1
		c-2.6,0-4.4-1.6-4.4-4.2v0c0-2.9,2.2-4.8,5.3-4.8c1.9,0,3.1,0.5,4.1,1.5c1,0.9,1.6,2.5,1.6,4.9v0c0,4.3-2.2,7.3-6.1,7.3
		C203,37.4,201.6,36.8,200.4,35.9z M207.4,28.4L207.4,28.4c0-1.1-0.7-1.8-1.9-1.8s-1.8,0.8-1.8,1.8v0c0,1,0.7,1.7,1.9,1.7
		C206.7,30.1,207.4,29.3,207.4,28.4z"/>
	<path class="st3" d="M217.8,29.7h6.2v3.1h-6.2V29.7z"/>
	<path class="st3" d="M230.6,34.4l4.9-3.8c1.2-1,1.7-1.6,1.7-2.4c0-0.8-0.6-1.3-1.5-1.3s-1.6,0.5-2.6,1.7l-2.5-2.1
		c1.4-1.8,2.8-2.8,5.4-2.8c2.9,0,4.9,1.7,4.9,4.2v0c0,2.1-1.1,3.2-3.1,4.6l-2.3,1.6h5.5v3h-10.4V34.4z"/>
	<path class="st3" d="M248.7,34.6h-6.4l-0.6-2.6l6.8-8.1h3.7v8h1.7v2.7h-1.7v2.6h-3.5V34.6z M248.7,31.9v-3.8l-3.1,3.8H248.7z"/>
	<path class="st3" d="M265.4,23.9h3.5l5.6,13.3h-3.9l-1-2.4h-5.1l-0.9,2.4h-3.8L265.4,23.9z M268.6,32l-1.5-3.8l-1.5,3.8H268.6z"/>
	<path class="st3" d="M272.9,24h4.1l3,8.4l3-8.4h4l-5.4,13.3h-3.4L272.9,24z"/>
	<path class="st3" d="M288.3,24h6.2c2,0,3.4,0.5,4.3,1.4c0.8,0.8,1.2,1.8,1.2,3.1v0c0,2-1.1,3.4-2.7,4.1l3.2,4.6h-4.2l-2.7-4H292v4
		h-3.7V24z M294.4,30.3c1.2,0,2-0.6,2-1.6v0c0-1-0.8-1.6-2-1.6H292v3.2H294.4z"/>
	<path class="st3" d="M301.9,24h3.7v13.2h-3.7V24z"/>
	<path class="st3" d="M308,24h3.7v10h6.4v3.2H308V24z"/>
	<path class="st3" d="M324.3,34.4l4.9-3.8c1.2-1,1.7-1.6,1.7-2.4c0-0.8-0.6-1.3-1.5-1.3s-1.6,0.5-2.6,1.7l-2.5-2.1
		c1.4-1.8,2.8-2.8,5.4-2.8c2.9,0,4.9,1.7,4.9,4.2v0c0,2.1-1.1,3.2-3.1,4.6l-2.3,1.6h5.5v3h-10.4V34.4z"/>
	<path class="st3" d="M336.2,30.6L336.2,30.6c0-3.8,2.4-6.9,6.1-6.9c3.8,0,6.1,3.1,6.1,6.8v0c0,3.7-2.4,6.9-6.1,6.9
		C338.5,37.4,336.2,34.3,336.2,30.6z M344.8,30.6L344.8,30.6c0-2.1-1-3.7-2.5-3.7s-2.4,1.5-2.4,3.6v0c0,2.1,1,3.6,2.5,3.6
		C343.8,34.2,344.8,32.7,344.8,30.6z"/>
	<path class="st3" d="M349.7,34.4l4.9-3.8c1.2-1,1.7-1.6,1.7-2.4c0-0.8-0.6-1.3-1.5-1.3s-1.6,0.5-2.6,1.7l-2.5-2.1
		c1.4-1.8,2.8-2.8,5.4-2.8c2.9,0,4.9,1.7,4.9,4.2v0c0,2.1-1.1,3.2-3.1,4.6l-2.3,1.6h5.5v3h-10.4V34.4z"/>
	<path class="st3" d="M363.9,27.3l-2.2,0.5L361,25l3.9-1.1h2.7v13.3h-3.6V27.3z"/>
</g>
</svg>
